<?xml version="1.0" encoding="UTF-8" standalone="no"?>
<!DOCTYPE svg PUBLIC "-//W3C//DTD SVG 1.1//EN" "http://www.w3.org/Graphics/SVG/1.1/DTD/svg11.dtd">
<svg height="453.82775pt" version="1.1" viewBox="0 0 476.759875 453.82775" width="476.759875pt" xmlns="http://www.w3.org/2000/svg" xmlns:xlink="http://www.w3.org/1999/xlink">
 <metadata>
  <rdf:RDF xmlns:cc="http://creativecommons.org/ns#" xmlns:dc="http://purl.org/dc/elements/1.1/" xmlns:rdf="http://www.w3.org/1999/02/22-rdf-syntax-ns#">
   <cc:Work>
    <dc:type rdf:resource="http://purl.org/dc/dcmitype/StillImage"/>
    <dc:date>2021-04-13T13:34:13.838689</dc:date>
    <dc:format>image/svg+xml</dc:format>
    <dc:creator>
     <cc:Agent>
      <dc:title>Matplotlib v3.4.0, https://matplotlib.org/</dc:title>
     </cc:Agent>
    </dc:creator>
   </cc:Work>
  </rdf:RDF>
 </metadata>
 <defs>
  <style type="text/css">*{stroke-linecap:butt;stroke-linejoin:round;}</style>
 </defs>
 <g id="figure_1">
  <g id="patch_1">
   <path d="M 0 453.82775  L 476.759875 453.82775  L 476.759875 0  L 0 0  z " style="fill:none;"/>
  </g>
  <g id="axes_1">
   <g id="patch_2">
    <path d="M 64.559875 402.12  L 455.159875 402.12  L 455.159875 21.6  L 64.559875 21.6  z " style="fill:none;"/>
   </g>
   <g id="matplotlib.axis_1">
    <g id="xtick_1">
     <g id="text_1">
      <!-- 0.0 -->
      <g style="fill:#808080;" transform="translate(75.317045 417.106625)scale(0.088 -0.088)">
       <defs>
        <path d="M 2034 4250  Q 1547 4250 1301 3770  Q 1056 3291 1056 2328  Q 1056 1369 1301 889  Q 1547 409 2034 409  Q 2525 409 2770 889  Q 3016 1369 3016 2328  Q 3016 3291 2770 3770  Q 2525 4250 2034 4250  z M 2034 4750  Q 2819 4750 3233 4129  Q 3647 3509 3647 2328  Q 3647 1150 3233 529  Q 2819 -91 2034 -91  Q 1250 -91 836 529  Q 422 1150 422 2328  Q 422 3509 836 4129  Q 1250 4750 2034 4750  z " id="DejaVuSans-30" transform="scale(0.015625)"/>
        <path d="M 684 794  L 1344 794  L 1344 0  L 684 0  L 684 794  z " id="DejaVuSans-2e" transform="scale(0.015625)"/>
       </defs>
       <use xlink:href="#DejaVuSans-30"/>
       <use x="63.623047" xlink:href="#DejaVuSans-2e"/>
       <use x="95.410156" xlink:href="#DejaVuSans-30"/>
      </g>
     </g>
    </g>
    <g id="xtick_2">
     <g id="text_2">
      <!-- 2.5 -->
      <g style="fill:#808080;" transform="translate(124.635227 417.106625)scale(0.088 -0.088)">
       <defs>
        <path d="M 1228 531  L 3431 531  L 3431 0  L 469 0  L 469 531  Q 828 903 1448 1529  Q 2069 2156 2228 2338  Q 2531 2678 2651 2914  Q 2772 3150 2772 3378  Q 2772 3750 2511 3984  Q 2250 4219 1831 4219  Q 1534 4219 1204 4116  Q 875 4013 500 3803  L 500 4441  Q 881 4594 1212 4672  Q 1544 4750 1819 4750  Q 2544 4750 2975 4387  Q 3406 4025 3406 3419  Q 3406 3131 3298 2873  Q 3191 2616 2906 2266  Q 2828 2175 2409 1742  Q 1991 1309 1228 531  z " id="DejaVuSans-32" transform="scale(0.015625)"/>
        <path d="M 691 4666  L 3169 4666  L 3169 4134  L 1269 4134  L 1269 2991  Q 1406 3038 1543 3061  Q 1681 3084 1819 3084  Q 2600 3084 3056 2656  Q 3513 2228 3513 1497  Q 3513 744 3044 326  Q 2575 -91 1722 -91  Q 1428 -91 1123 -41  Q 819 9 494 109  L 494 744  Q 775 591 1075 516  Q 1375 441 1709 441  Q 2250 441 2565 725  Q 2881 1009 2881 1497  Q 2881 1984 2565 2268  Q 2250 2553 1709 2553  Q 1456 2553 1204 2497  Q 953 2441 691 2322  L 691 4666  z " id="DejaVuSans-35" transform="scale(0.015625)"/>
       </defs>
       <use xlink:href="#DejaVuSans-32"/>
       <use x="63.623047" xlink:href="#DejaVuSans-2e"/>
       <use x="95.410156" xlink:href="#DejaVuSans-35"/>
      </g>
     </g>
    </g>
    <g id="xtick_3">
     <g id="text_3">
      <!-- 5.0 -->
      <g style="fill:#808080;" transform="translate(173.953409 417.106625)scale(0.088 -0.088)">
       <use xlink:href="#DejaVuSans-35"/>
       <use x="63.623047" xlink:href="#DejaVuSans-2e"/>
       <use x="95.410156" xlink:href="#DejaVuSans-30"/>
      </g>
     </g>
    </g>
    <g id="xtick_4">
     <g id="text_4">
      <!-- 7.5 -->
      <g style="fill:#808080;" transform="translate(223.271591 417.106625)scale(0.088 -0.088)">
       <defs>
        <path d="M 525 4666  L 3525 4666  L 3525 4397  L 1831 0  L 1172 0  L 2766 4134  L 525 4134  L 525 4666  z " id="DejaVuSans-37" transform="scale(0.015625)"/>
       </defs>
       <use xlink:href="#DejaVuSans-37"/>
       <use x="63.623047" xlink:href="#DejaVuSans-2e"/>
       <use x="95.410156" xlink:href="#DejaVuSans-35"/>
      </g>
     </g>
    </g>
    <g id="xtick_5">
     <g id="text_5">
      <!-- 10.0 -->
      <g style="fill:#808080;" transform="translate(269.790273 417.106625)scale(0.088 -0.088)">
       <defs>
        <path d="M 794 531  L 1825 531  L 1825 4091  L 703 3866  L 703 4441  L 1819 4666  L 2450 4666  L 2450 531  L 3481 531  L 3481 0  L 794 0  L 794 531  z " id="DejaVuSans-31" transform="scale(0.015625)"/>
       </defs>
       <use xlink:href="#DejaVuSans-31"/>
       <use x="63.623047" xlink:href="#DejaVuSans-30"/>
       <use x="127.246094" xlink:href="#DejaVuSans-2e"/>
       <use x="159.033203" xlink:href="#DejaVuSans-30"/>
      </g>
     </g>
    </g>
    <g id="xtick_6">
     <g id="text_6">
      <!-- 12.5 -->
      <g style="fill:#808080;" transform="translate(319.108455 417.106625)scale(0.088 -0.088)">
       <use xlink:href="#DejaVuSans-31"/>
       <use x="63.623047" xlink:href="#DejaVuSans-32"/>
       <use x="127.246094" xlink:href="#DejaVuSans-2e"/>
       <use x="159.033203" xlink:href="#DejaVuSans-35"/>
      </g>
     </g>
    </g>
    <g id="xtick_7">
     <g id="text_7">
      <!-- 15.0 -->
      <g style="fill:#808080;" transform="translate(368.426636 417.106625)scale(0.088 -0.088)">
       <use xlink:href="#DejaVuSans-31"/>
       <use x="63.623047" xlink:href="#DejaVuSans-35"/>
       <use x="127.246094" xlink:href="#DejaVuSans-2e"/>
       <use x="159.033203" xlink:href="#DejaVuSans-30"/>
      </g>
     </g>
    </g>
    <g id="xtick_8">
     <g id="text_8">
      <!-- 17.5 -->
      <g style="fill:#808080;" transform="translate(417.744818 417.106625)scale(0.088 -0.088)">
       <use xlink:href="#DejaVuSans-31"/>
       <use x="63.623047" xlink:href="#DejaVuSans-37"/>
       <use x="127.246094" xlink:href="#DejaVuSans-2e"/>
       <use x="159.033203" xlink:href="#DejaVuSans-35"/>
      </g>
     </g>
    </g>
    <g id="text_9">
     <!-- timepoint -->
     <g style="fill:#808080;" transform="translate(236.774125 430.23125)scale(0.096 -0.096)">
      <defs>
       <path d="M 1172 4494  L 1172 3500  L 2356 3500  L 2356 3053  L 1172 3053  L 1172 1153  Q 1172 725 1289 603  Q 1406 481 1766 481  L 2356 481  L 2356 0  L 1766 0  Q 1100 0 847 248  Q 594 497 594 1153  L 594 3053  L 172 3053  L 172 3500  L 594 3500  L 594 4494  L 1172 4494  z " id="DejaVuSans-74" transform="scale(0.015625)"/>
       <path d="M 603 3500  L 1178 3500  L 1178 0  L 603 0  L 603 3500  z M 603 4863  L 1178 4863  L 1178 4134  L 603 4134  L 603 4863  z " id="DejaVuSans-69" transform="scale(0.015625)"/>
       <path d="M 3328 2828  Q 3544 3216 3844 3400  Q 4144 3584 4550 3584  Q 5097 3584 5394 3201  Q 5691 2819 5691 2113  L 5691 0  L 5113 0  L 5113 2094  Q 5113 2597 4934 2840  Q 4756 3084 4391 3084  Q 3944 3084 3684 2787  Q 3425 2491 3425 1978  L 3425 0  L 2847 0  L 2847 2094  Q 2847 2600 2669 2842  Q 2491 3084 2119 3084  Q 1678 3084 1418 2786  Q 1159 2488 1159 1978  L 1159 0  L 581 0  L 581 3500  L 1159 3500  L 1159 2956  Q 1356 3278 1631 3431  Q 1906 3584 2284 3584  Q 2666 3584 2933 3390  Q 3200 3197 3328 2828  z " id="DejaVuSans-6d" transform="scale(0.015625)"/>
       <path d="M 3597 1894  L 3597 1613  L 953 1613  Q 991 1019 1311 708  Q 1631 397 2203 397  Q 2534 397 2845 478  Q 3156 559 3463 722  L 3463 178  Q 3153 47 2828 -22  Q 2503 -91 2169 -91  Q 1331 -91 842 396  Q 353 884 353 1716  Q 353 2575 817 3079  Q 1281 3584 2069 3584  Q 2775 3584 3186 3129  Q 3597 2675 3597 1894  z M 3022 2063  Q 3016 2534 2758 2815  Q 2500 3097 2075 3097  Q 1594 3097 1305 2825  Q 1016 2553 972 2059  L 3022 2063  z " id="DejaVuSans-65" transform="scale(0.015625)"/>
       <path d="M 1159 525  L 1159 -1331  L 581 -1331  L 581 3500  L 1159 3500  L 1159 2969  Q 1341 3281 1617 3432  Q 1894 3584 2278 3584  Q 2916 3584 3314 3078  Q 3713 2572 3713 1747  Q 3713 922 3314 415  Q 2916 -91 2278 -91  Q 1894 -91 1617 61  Q 1341 213 1159 525  z M 3116 1747  Q 3116 2381 2855 2742  Q 2594 3103 2138 3103  Q 1681 3103 1420 2742  Q 1159 2381 1159 1747  Q 1159 1113 1420 752  Q 1681 391 2138 391  Q 2594 391 2855 752  Q 3116 1113 3116 1747  z " id="DejaVuSans-70" transform="scale(0.015625)"/>
       <path d="M 1959 3097  Q 1497 3097 1228 2736  Q 959 2375 959 1747  Q 959 1119 1226 758  Q 1494 397 1959 397  Q 2419 397 2687 759  Q 2956 1122 2956 1747  Q 2956 2369 2687 2733  Q 2419 3097 1959 3097  z M 1959 3584  Q 2709 3584 3137 3096  Q 3566 2609 3566 1747  Q 3566 888 3137 398  Q 2709 -91 1959 -91  Q 1206 -91 779 398  Q 353 888 353 1747  Q 353 2609 779 3096  Q 1206 3584 1959 3584  z " id="DejaVuSans-6f" transform="scale(0.015625)"/>
       <path d="M 3513 2113  L 3513 0  L 2938 0  L 2938 2094  Q 2938 2591 2744 2837  Q 2550 3084 2163 3084  Q 1697 3084 1428 2787  Q 1159 2491 1159 1978  L 1159 0  L 581 0  L 581 3500  L 1159 3500  L 1159 2956  Q 1366 3272 1645 3428  Q 1925 3584 2291 3584  Q 2894 3584 3203 3211  Q 3513 2838 3513 2113  z " id="DejaVuSans-6e" transform="scale(0.015625)"/>
      </defs>
      <use xlink:href="#DejaVuSans-74"/>
      <use x="39.208984" xlink:href="#DejaVuSans-69"/>
      <use x="66.992188" xlink:href="#DejaVuSans-6d"/>
      <use x="164.404297" xlink:href="#DejaVuSans-65"/>
      <use x="225.927734" xlink:href="#DejaVuSans-70"/>
      <use x="289.404297" xlink:href="#DejaVuSans-6f"/>
      <use x="350.585938" xlink:href="#DejaVuSans-69"/>
      <use x="378.369141" xlink:href="#DejaVuSans-6e"/>
      <use x="441.748047" xlink:href="#DejaVuSans-74"/>
     </g>
    </g>
   </g>
   <g id="matplotlib.axis_2">
    <g id="ytick_1">
     <g id="text_10">
      <!-- −0.1 -->
      <g style="fill:#808080;" transform="translate(34.891 360.867764)scale(0.088 -0.088)">
       <defs>
        <path d="M 678 2272  L 4684 2272  L 4684 1741  L 678 1741  L 678 2272  z " id="DejaVuSans-2212" transform="scale(0.015625)"/>
       </defs>
       <use xlink:href="#DejaVuSans-2212"/>
       <use x="83.789062" xlink:href="#DejaVuSans-30"/>
       <use x="147.412109" xlink:href="#DejaVuSans-2e"/>
       <use x="179.199219" xlink:href="#DejaVuSans-31"/>
      </g>
     </g>
    </g>
    <g id="ytick_2">
     <g id="text_11">
      <!-- 0.0 -->
      <g style="fill:#808080;" transform="translate(42.265125 289.582482)scale(0.088 -0.088)">
       <use xlink:href="#DejaVuSans-30"/>
       <use x="63.623047" xlink:href="#DejaVuSans-2e"/>
       <use x="95.410156" xlink:href="#DejaVuSans-30"/>
      </g>
     </g>
    </g>
    <g id="ytick_3">
     <g id="text_12">
      <!-- 0.1 -->
      <g style="fill:#808080;" transform="translate(42.265125 218.2972)scale(0.088 -0.088)">
       <use xlink:href="#DejaVuSans-30"/>
       <use x="63.623047" xlink:href="#DejaVuSans-2e"/>
       <use x="95.410156" xlink:href="#DejaVuSans-31"/>
      </g>
     </g>
    </g>
    <g id="ytick_4">
     <g id="text_13">
      <!-- 0.2 -->
      <g style="fill:#808080;" transform="translate(42.265125 147.011918)scale(0.088 -0.088)">
       <use xlink:href="#DejaVuSans-30"/>
       <use x="63.623047" xlink:href="#DejaVuSans-2e"/>
       <use x="95.410156" xlink:href="#DejaVuSans-32"/>
      </g>
     </g>
    </g>
    <g id="ytick_5">
     <g id="text_14">
      <!-- 0.3 -->
      <g style="fill:#808080;" transform="translate(42.265125 75.726636)scale(0.088 -0.088)">
       <defs>
        <path d="M 2597 2516  Q 3050 2419 3304 2112  Q 3559 1806 3559 1356  Q 3559 666 3084 287  Q 2609 -91 1734 -91  Q 1441 -91 1130 -33  Q 819 25 488 141  L 488 750  Q 750 597 1062 519  Q 1375 441 1716 441  Q 2309 441 2620 675  Q 2931 909 2931 1356  Q 2931 1769 2642 2001  Q 2353 2234 1838 2234  L 1294 2234  L 1294 2753  L 1863 2753  Q 2328 2753 2575 2939  Q 2822 3125 2822 3475  Q 2822 3834 2567 4026  Q 2313 4219 1838 4219  Q 1578 4219 1281 4162  Q 984 4106 628 3988  L 628 4550  Q 988 4650 1302 4700  Q 1616 4750 1894 4750  Q 2613 4750 3031 4423  Q 3450 4097 3450 3541  Q 3450 3153 3228 2886  Q 3006 2619 2597 2516  z " id="DejaVuSans-33" transform="scale(0.015625)"/>
       </defs>
       <use xlink:href="#DejaVuSans-30"/>
       <use x="63.623047" xlink:href="#DejaVuSans-2e"/>
       <use x="95.410156" xlink:href="#DejaVuSans-33"/>
      </g>
     </g>
    </g>
    <g id="text_15">
     <!-- signal -->
     <g style="fill:#808080;" transform="translate(28.8945 226.05825)rotate(-90)scale(0.096 -0.096)">
      <defs>
       <path d="M 2834 3397  L 2834 2853  Q 2591 2978 2328 3040  Q 2066 3103 1784 3103  Q 1356 3103 1142 2972  Q 928 2841 928 2578  Q 928 2378 1081 2264  Q 1234 2150 1697 2047  L 1894 2003  Q 2506 1872 2764 1633  Q 3022 1394 3022 966  Q 3022 478 2636 193  Q 2250 -91 1575 -91  Q 1294 -91 989 -36  Q 684 19 347 128  L 347 722  Q 666 556 975 473  Q 1284 391 1588 391  Q 1994 391 2212 530  Q 2431 669 2431 922  Q 2431 1156 2273 1281  Q 2116 1406 1581 1522  L 1381 1569  Q 847 1681 609 1914  Q 372 2147 372 2553  Q 372 3047 722 3315  Q 1072 3584 1716 3584  Q 2034 3584 2315 3537  Q 2597 3491 2834 3397  z " id="DejaVuSans-73" transform="scale(0.015625)"/>
       <path d="M 2906 1791  Q 2906 2416 2648 2759  Q 2391 3103 1925 3103  Q 1463 3103 1205 2759  Q 947 2416 947 1791  Q 947 1169 1205 825  Q 1463 481 1925 481  Q 2391 481 2648 825  Q 2906 1169 2906 1791  z M 3481 434  Q 3481 -459 3084 -895  Q 2688 -1331 1869 -1331  Q 1566 -1331 1297 -1286  Q 1028 -1241 775 -1147  L 775 -588  Q 1028 -725 1275 -790  Q 1522 -856 1778 -856  Q 2344 -856 2625 -561  Q 2906 -266 2906 331  L 2906 616  Q 2728 306 2450 153  Q 2172 0 1784 0  Q 1141 0 747 490  Q 353 981 353 1791  Q 353 2603 747 3093  Q 1141 3584 1784 3584  Q 2172 3584 2450 3431  Q 2728 3278 2906 2969  L 2906 3500  L 3481 3500  L 3481 434  z " id="DejaVuSans-67" transform="scale(0.015625)"/>
       <path d="M 2194 1759  Q 1497 1759 1228 1600  Q 959 1441 959 1056  Q 959 750 1161 570  Q 1363 391 1709 391  Q 2188 391 2477 730  Q 2766 1069 2766 1631  L 2766 1759  L 2194 1759  z M 3341 1997  L 3341 0  L 2766 0  L 2766 531  Q 2569 213 2275 61  Q 1981 -91 1556 -91  Q 1019 -91 701 211  Q 384 513 384 1019  Q 384 1609 779 1909  Q 1175 2209 1959 2209  L 2766 2209  L 2766 2266  Q 2766 2663 2505 2880  Q 2244 3097 1772 3097  Q 1472 3097 1187 3025  Q 903 2953 641 2809  L 641 3341  Q 956 3463 1253 3523  Q 1550 3584 1831 3584  Q 2591 3584 2966 3190  Q 3341 2797 3341 1997  z " id="DejaVuSans-61" transform="scale(0.015625)"/>
       <path d="M 603 4863  L 1178 4863  L 1178 0  L 603 0  L 603 4863  z " id="DejaVuSans-6c" transform="scale(0.015625)"/>
      </defs>
      <use xlink:href="#DejaVuSans-73"/>
      <use x="52.099609" xlink:href="#DejaVuSans-69"/>
      <use x="79.882812" xlink:href="#DejaVuSans-67"/>
      <use x="143.359375" xlink:href="#DejaVuSans-6e"/>
      <use x="206.738281" xlink:href="#DejaVuSans-61"/>
      <use x="268.017578" xlink:href="#DejaVuSans-6c"/>
     </g>
    </g>
   </g>
   <g id="PolyCollection_1">
    <defs>
     <path d="M 82.31442 -161.607824  L 82.31442 -139.717108  L 102.041693 -128.312451  L 121.768966 -136.95711  L 141.496239 -182.738211  L 161.223511 -263.332891  L 180.950784 -326.694062  L 200.678057 -330.187459  L 220.40533 -280.725041  L 240.132602 -211.084875  L 259.859875 -148.524321  L 279.587148 -107.52242  L 299.31442 -80.043963  L 319.041693 -69.004114  L 338.768966 -78.965598  L 358.496239 -92.666542  L 378.223511 -105.400467  L 397.950784 -114.78394  L 417.678057 -118.491754  L 437.40533 -119.635377  L 437.40533 -138.183568  L 437.40533 -138.183568  L 417.678057 -140.006983  L 397.950784 -138.761756  L 378.223511 -132.330525  L 358.496239 -123.147903  L 338.768966 -114.14658  L 319.041693 -112.227677  L 299.31442 -121.527158  L 279.587148 -156.489819  L 259.859875 -215.357234  L 240.132602 -296.679732  L 220.40533 -370.841962  L 200.678057 -414.931386  L 180.950784 -396.326556  L 161.223511 -327.318472  L 141.496239 -239.489484  L 121.768966 -170.177744  L 102.041693 -150.917314  L 82.31442 -161.607824  z " id="m5231c74cf8" style="stroke:#023eff;stroke-opacity:0.2;stroke-width:0.8;"/>
    </defs>
    <g clip-path="url(#pde1d86e87b)">
     <use style="fill:#023eff;fill-opacity:0.2;stroke:#023eff;stroke-opacity:0.2;stroke-width:0.8;" x="0" xlink:href="#m5231c74cf8" y="453.82775"/>
    </g>
   </g>
   <g id="PolyCollection_2">
    <defs>
     <path d="M 82.31442 -159.505606  L 82.31442 -142.598105  L 102.041693 -137.569978  L 121.768966 -144.093255  L 141.496239 -165.907838  L 161.223511 -189.870843  L 180.950784 -197.627851  L 200.678057 -177.809615  L 220.40533 -143.028977  L 240.132602 -115.650545  L 259.859875 -108.462695  L 279.587148 -110.734124  L 299.31442 -119.844826  L 319.041693 -135.335594  L 338.768966 -146.172797  L 358.496239 -153.152837  L 378.223511 -155.237929  L 397.950784 -154.523896  L 417.678057 -151.105922  L 437.40533 -147.874076  L 437.40533 -170.084171  L 437.40533 -170.084171  L 417.678057 -169.905549  L 397.950784 -170.886767  L 378.223511 -171.807806  L 358.496239 -169.851972  L 338.768966 -165.509743  L 319.041693 -158.635269  L 299.31442 -150.190177  L 279.587148 -141.643573  L 259.859875 -140.401518  L 240.132602 -151.650825  L 220.40533 -177.468898  L 200.678057 -216.502422  L 180.950784 -242.481569  L 161.223511 -235.333465  L 141.496239 -201.105282  L 121.768966 -169.145127  L 102.041693 -156.347057  L 82.31442 -159.505606  z " id="m9b4030dae7" style="stroke:#023eff;stroke-opacity:0.2;stroke-width:0.8;"/>
    </defs>
    <g clip-path="url(#pde1d86e87b)">
     <use style="fill:#023eff;fill-opacity:0.2;stroke:#023eff;stroke-opacity:0.2;stroke-width:0.8;" x="0" xlink:href="#m9b4030dae7" y="453.82775"/>
    </g>
   </g>
   <g id="PolyCollection_3">
    <defs>
     <path d="M 82.31442 -177.120093  L 82.31442 -153.254665  L 102.041693 -144.56082  L 121.768966 -148.279445  L 141.496239 -170.855637  L 161.223511 -218.448988  L 180.950784 -254.538252  L 200.678057 -250.006195  L 220.40533 -208.755531  L 240.132602 -158.188185  L 259.859875 -112.102421  L 279.587148 -93.583691  L 299.31442 -92.798741  L 319.041693 -101.13888  L 338.768966 -112.595117  L 358.496239 -125.510658  L 378.223511 -135.342677  L 397.950784 -140.213124  L 417.678057 -141.198386  L 437.40533 -140.159171  L 437.40533 -163.236678  L 437.40533 -163.236678  L 417.678057 -162.171327  L 397.950784 -159.343205  L 378.223511 -157.121104  L 358.496239 -149.13991  L 338.768966 -140.928243  L 319.041693 -130.74135  L 299.31442 -124.579013  L 279.587148 -132.928198  L 259.859875 -166.755466  L 240.132602 -217.542684  L 220.40533 -280.850759  L 200.678057 -331.534421  L 180.950784 -335.030514  L 161.223511 -279.501118  L 141.496239 -212.273029  L 121.768966 -173.89676  L 102.041693 -170.890429  L 82.31442 -177.120093  z " id="m86f1499092" style="stroke:#ff7c00;stroke-opacity:0.2;stroke-width:0.8;"/>
    </defs>
    <g clip-path="url(#pde1d86e87b)">
     <use style="fill:#ff7c00;fill-opacity:0.2;stroke:#ff7c00;stroke-opacity:0.2;stroke-width:0.8;" x="0" xlink:href="#m86f1499092" y="453.82775"/>
    </g>
   </g>
   <g id="PolyCollection_4">
    <defs>
     <path d="M 82.31442 -166.554712  L 82.31442 -149.58816  L 102.041693 -147.619086  L 121.768966 -154.097001  L 141.496239 -167.765888  L 161.223511 -177.367125  L 180.950784 -177.541478  L 200.678057 -165.021313  L 220.40533 -138.807748  L 240.132602 -115.517743  L 259.859875 -115.541304  L 279.587148 -130.934821  L 299.31442 -144.334714  L 319.041693 -153.678387  L 338.768966 -157.33872  L 358.496239 -158.601355  L 378.223511 -159.794096  L 397.950784 -159.087677  L 417.678057 -158.297521  L 437.40533 -158.571802  L 437.40533 -182.454895  L 437.40533 -182.454895  L 417.678057 -179.937141  L 397.950784 -177.269444  L 378.223511 -176.225178  L 358.496239 -177.916539  L 338.768966 -177.856229  L 319.041693 -176.337211  L 299.31442 -167.846822  L 279.587148 -158.94336  L 259.859875 -151.998126  L 240.132602 -153.260669  L 220.40533 -166.089071  L 200.678057 -191.75733  L 180.950784 -220.418403  L 161.223511 -221.70862  L 141.496239 -194.6984  L 121.768966 -171.594642  L 102.041693 -164.669066  L 82.31442 -166.554712  z " id="m5ef6c4f2b9" style="stroke:#ff7c00;stroke-opacity:0.2;stroke-width:0.8;"/>
    </defs>
    <g clip-path="url(#pde1d86e87b)">
     <use style="fill:#ff7c00;fill-opacity:0.2;stroke:#ff7c00;stroke-opacity:0.2;stroke-width:0.8;" x="0" xlink:href="#m5ef6c4f2b9" y="453.82775"/>
    </g>
   </g>
   <g id="line2d_1">
    <path clip-path="url(#pde1d86e87b)" d="M 82.31442 304.05698  L 102.041693 315.080875  L 121.768966 300.540443  L 141.496239 242.595767  L 161.223511 159.971019  L 180.950784 95.750129  L 200.678057 84.51777  L 220.40533 128.399336  L 240.132602 201.546916  L 259.859875 272.651593  L 279.587148 324.109424  L 299.31442 352.428633  L 319.041693 360.427161  L 338.768966 356.595376  L 358.496239 345.863451  L 378.223511 334.851195  L 397.950784 327.438429  L 417.678057 324.600532  L 437.40533 325.11686  " style="fill:none;stroke:#023eff;stroke-linecap:round;stroke-width:1.2;"/>
   </g>
   <g id="line2d_2">
    <path clip-path="url(#pde1d86e87b)" d="M 82.31442 302.752928  L 102.041693 306.410906  L 121.768966 297.276524  L 141.496239 270.60162  L 161.223511 242.539855  L 180.950784 236.811482  L 200.678057 258.091884  L 220.40533 292.016647  L 240.132602 318.25585  L 259.859875 328.217507  L 279.587148 325.415577  L 299.31442 316.94324  L 319.041693 306.921252  L 338.768966 298.485236  L 358.496239 292.815284  L 378.223511 290.167569  L 397.950784 291.661582  L 417.678057 293.496493  L 437.40533 295.054704  " style="fill:none;stroke:#023eff;stroke-dasharray:4.8,1.8;stroke-dashoffset:0;stroke-width:1.2;"/>
   </g>
   <g id="line2d_3">
    <path clip-path="url(#pde1d86e87b)" d="M 82.31442 290.052452  L 102.041693 297.386608  L 121.768966 293.203547  L 141.496239 260.297281  L 161.223511 205.640051  L 180.950784 163.127167  L 200.678057 163.784217  L 220.40533 207.828011  L 240.132602 268.479769  L 259.859875 316.210581  L 279.587148 340.101642  L 299.31442 344.644702  L 319.041693 338.013708  L 338.768966 327.450838  L 358.496239 316.043902  L 378.223511 307.708436  L 397.950784 303.583307  L 417.678057 302.046164  L 437.40533 302.5216  " style="fill:none;stroke:#ff7c00;stroke-linecap:round;stroke-width:1.2;"/>
   </g>
   <g id="line2d_4">
    <path clip-path="url(#pde1d86e87b)" d="M 82.31442 295.603778  L 102.041693 297.368301  L 121.768966 290.642863  L 141.496239 273.242452  L 161.223511 256.813562  L 180.950784 256.556135  L 200.678057 274.964318  L 220.40533 300.975326  L 240.132602 318.408285  L 259.859875 319.238822  L 279.587148 308.407866  L 299.31442 296.876509  L 319.041693 289.367468  L 338.768966 286.553348  L 358.496239 286.213523  L 378.223511 286.023578  L 397.950784 286.186018  L 417.678057 285.742705  L 437.40533 284.616626  " style="fill:none;stroke:#ff7c00;stroke-dasharray:4.8,1.8;stroke-dashoffset:0;stroke-width:1.2;"/>
   </g>
   <g id="line2d_5"/>
   <g id="line2d_6"/>
   <g id="line2d_7"/>
   <g id="line2d_8"/>
   <g id="patch_3">
    <path d="M 64.559875 402.12  L 64.559875 21.6  " style="fill:none;stroke:#262626;stroke-linecap:square;stroke-linejoin:miter;"/>
   </g>
   <g id="patch_4">
    <path d="M 455.159875 402.12  L 455.159875 21.6  " style="fill:none;stroke:#262626;stroke-linecap:square;stroke-linejoin:miter;"/>
   </g>
   <g id="patch_5">
    <path d="M 64.559875 402.12  L 455.159875 402.12  " style="fill:none;stroke:#262626;stroke-linecap:square;stroke-linejoin:miter;"/>
   </g>
   <g id="patch_6">
    <path d="M 64.559875 21.6  L 455.159875 21.6  " style="fill:none;stroke:#262626;stroke-linecap:square;stroke-linejoin:miter;"/>
   </g>
   <g id="legend_1">
    <g id="patch_7">
     <path d="M 387.096 107.689  L 448.999875 107.689  Q 450.759875 107.689 450.759875 105.929  L 450.759875 27.76  Q 450.759875 26 448.999875 26  L 387.096 26  Q 385.336 26 385.336 27.76  L 385.336 105.929  Q 385.336 107.689 387.096 107.689  z " style="fill:#ffffff;opacity:0.8;stroke:#cccccc;stroke-linejoin:miter;stroke-width:0.8;"/>
    </g>
    <g id="text_16">
     <!-- region -->
     <g style="fill:#808080;" transform="translate(395.896 36.8145)scale(0.096 -0.096)">
      <defs>
       <path d="M 2631 2963  Q 2534 3019 2420 3045  Q 2306 3072 2169 3072  Q 1681 3072 1420 2755  Q 1159 2438 1159 1844  L 1159 0  L 581 0  L 581 3500  L 1159 3500  L 1159 2956  Q 1341 3275 1631 3429  Q 1922 3584 2338 3584  Q 2397 3584 2469 3576  Q 2541 3569 2628 3553  L 2631 2963  z " id="DejaVuSans-72" transform="scale(0.015625)"/>
      </defs>
      <use xlink:href="#DejaVuSans-72"/>
      <use x="38.863281" xlink:href="#DejaVuSans-65"/>
      <use x="100.386719" xlink:href="#DejaVuSans-67"/>
      <use x="163.863281" xlink:href="#DejaVuSans-69"/>
      <use x="191.646484" xlink:href="#DejaVuSans-6f"/>
      <use x="252.828125" xlink:href="#DejaVuSans-6e"/>
     </g>
    </g>
    <g id="line2d_9">
     <path d="M 388.856 46.817625  L 406.456 46.817625  " style="fill:none;stroke:#023eff;stroke-linecap:round;stroke-width:1.2;"/>
    </g>
    <g id="line2d_10"/>
    <g id="text_17">
     <!-- parietal -->
     <g style="fill:#808080;" transform="translate(413.496 49.897625)scale(0.088 -0.088)">
      <use xlink:href="#DejaVuSans-70"/>
      <use x="63.476562" xlink:href="#DejaVuSans-61"/>
      <use x="124.755859" xlink:href="#DejaVuSans-72"/>
      <use x="165.869141" xlink:href="#DejaVuSans-69"/>
      <use x="193.652344" xlink:href="#DejaVuSans-65"/>
      <use x="255.175781" xlink:href="#DejaVuSans-74"/>
      <use x="294.384766" xlink:href="#DejaVuSans-61"/>
      <use x="355.664062" xlink:href="#DejaVuSans-6c"/>
     </g>
    </g>
    <g id="line2d_11">
     <path d="M 388.856 59.734375  L 406.456 59.734375  " style="fill:none;stroke:#ff7c00;stroke-linecap:round;stroke-width:1.2;"/>
    </g>
    <g id="line2d_12"/>
    <g id="text_18">
     <!-- frontal -->
     <g style="fill:#808080;" transform="translate(413.496 62.814375)scale(0.088 -0.088)">
      <defs>
       <path d="M 2375 4863  L 2375 4384  L 1825 4384  Q 1516 4384 1395 4259  Q 1275 4134 1275 3809  L 1275 3500  L 2222 3500  L 2222 3053  L 1275 3053  L 1275 0  L 697 0  L 697 3053  L 147 3053  L 147 3500  L 697 3500  L 697 3744  Q 697 4328 969 4595  Q 1241 4863 1831 4863  L 2375 4863  z " id="DejaVuSans-66" transform="scale(0.015625)"/>
      </defs>
      <use xlink:href="#DejaVuSans-66"/>
      <use x="35.205078" xlink:href="#DejaVuSans-72"/>
      <use x="74.068359" xlink:href="#DejaVuSans-6f"/>
      <use x="135.25" xlink:href="#DejaVuSans-6e"/>
      <use x="198.628906" xlink:href="#DejaVuSans-74"/>
      <use x="237.837891" xlink:href="#DejaVuSans-61"/>
      <use x="299.117188" xlink:href="#DejaVuSans-6c"/>
     </g>
    </g>
    <g id="text_19">
     <!-- event -->
     <g style="fill:#808080;" transform="translate(395.896 76.339)scale(0.096 -0.096)">
      <defs>
       <path d="M 191 3500  L 800 3500  L 1894 563  L 2988 3500  L 3597 3500  L 2284 0  L 1503 0  L 191 3500  z " id="DejaVuSans-76" transform="scale(0.015625)"/>
      </defs>
      <use xlink:href="#DejaVuSans-65"/>
      <use x="61.523438" xlink:href="#DejaVuSans-76"/>
      <use x="120.703125" xlink:href="#DejaVuSans-65"/>
      <use x="182.226562" xlink:href="#DejaVuSans-6e"/>
      <use x="245.605469" xlink:href="#DejaVuSans-74"/>
     </g>
    </g>
    <g id="line2d_13">
     <path d="M 388.856 86.342125  L 406.456 86.342125  " style="fill:none;stroke:#333333;stroke-linecap:round;stroke-width:1.2;"/>
    </g>
    <g id="line2d_14"/>
    <g id="text_20">
     <!-- stim -->
     <g style="fill:#808080;" transform="translate(413.496 89.422125)scale(0.088 -0.088)">
      <use xlink:href="#DejaVuSans-73"/>
      <use x="52.099609" xlink:href="#DejaVuSans-74"/>
      <use x="91.308594" xlink:href="#DejaVuSans-69"/>
      <use x="119.091797" xlink:href="#DejaVuSans-6d"/>
     </g>
    </g>
    <g id="line2d_15">
     <path d="M 388.856 99.258875  L 406.456 99.258875  " style="fill:none;stroke:#333333;stroke-dasharray:4.8,1.8;stroke-dashoffset:0;stroke-width:1.2;"/>
    </g>
    <g id="line2d_16"/>
    <g id="text_21">
     <!-- cue -->
     <g style="fill:#808080;" transform="translate(413.496 102.338875)scale(0.088 -0.088)">
      <defs>
       <path d="M 3122 3366  L 3122 2828  Q 2878 2963 2633 3030  Q 2388 3097 2138 3097  Q 1578 3097 1268 2742  Q 959 2388 959 1747  Q 959 1106 1268 751  Q 1578 397 2138 397  Q 2388 397 2633 464  Q 2878 531 3122 666  L 3122 134  Q 2881 22 2623 -34  Q 2366 -91 2075 -91  Q 1284 -91 818 406  Q 353 903 353 1747  Q 353 2603 823 3093  Q 1294 3584 2113 3584  Q 2378 3584 2631 3529  Q 2884 3475 3122 3366  z " id="DejaVuSans-63" transform="scale(0.015625)"/>
       <path d="M 544 1381  L 544 3500  L 1119 3500  L 1119 1403  Q 1119 906 1312 657  Q 1506 409 1894 409  Q 2359 409 2629 706  Q 2900 1003 2900 1516  L 2900 3500  L 3475 3500  L 3475 0  L 2900 0  L 2900 538  Q 2691 219 2414 64  Q 2138 -91 1772 -91  Q 1169 -91 856 284  Q 544 659 544 1381  z M 1991 3584  L 1991 3584  z " id="DejaVuSans-75" transform="scale(0.015625)"/>
      </defs>
      <use xlink:href="#DejaVuSans-63"/>
      <use x="54.980469" xlink:href="#DejaVuSans-75"/>
      <use x="118.359375" xlink:href="#DejaVuSans-65"/>
     </g>
    </g>
   </g>
  </g>
 </g>
 <defs>
  <clipPath id="pde1d86e87b">
   <rect height="380.52" width="390.6" x="64.559875" y="21.6"/>
  </clipPath>
 </defs>
</svg>
